<mxfile host="app.diagrams.net" modified="2024-04-01T03:45:00.535Z" agent="Mozilla/5.0 (Windows NT 10.0; Win64; x64) AppleWebKit/537.36 (KHTML, like Gecko) Chrome/123.0.0.0 Safari/537.36" etag="KrxLMlVMCqYHCpLa-UMs" version="24.2.1" type="device">
  <diagram id="C5RBs43oDa-KdzZeNtuy" name="Page-1">
    <mxGraphModel dx="339" dy="663" grid="1" gridSize="10" guides="1" tooltips="1" connect="1" arrows="1" fold="1" page="1" pageScale="1" pageWidth="827" pageHeight="1169" math="0" shadow="0">
      <root>
        <mxCell id="WIyWlLk6GJQsqaUBKTNV-0" />
        <mxCell id="WIyWlLk6GJQsqaUBKTNV-1" parent="WIyWlLk6GJQsqaUBKTNV-0" />
        <mxCell id="V_W2RUlEHDYnHeLPTbX3-0" value="디테일 페이지&lt;div&gt;시작&lt;/div&gt;" style="strokeWidth=2;html=1;shape=mxgraph.flowchart.terminator;whiteSpace=wrap;" vertex="1" parent="WIyWlLk6GJQsqaUBKTNV-1">
          <mxGeometry x="960" y="40" width="120" height="40" as="geometry" />
        </mxCell>
        <mxCell id="V_W2RUlEHDYnHeLPTbX3-1" value="DB 접속" style="rounded=0;whiteSpace=wrap;html=1;" vertex="1" parent="WIyWlLk6GJQsqaUBKTNV-1">
          <mxGeometry x="960" y="120" width="120" height="40" as="geometry" />
        </mxCell>
        <mxCell id="V_W2RUlEHDYnHeLPTbX3-2" value="DB 접속&lt;div&gt;예외 발생&lt;/div&gt;" style="rhombus;whiteSpace=wrap;html=1;" vertex="1" parent="WIyWlLk6GJQsqaUBKTNV-1">
          <mxGeometry x="960" y="200" width="120" height="80" as="geometry" />
        </mxCell>
        <mxCell id="V_W2RUlEHDYnHeLPTbX3-3" value="예외 메시지 출력" style="shape=document;whiteSpace=wrap;html=1;boundedLbl=1;" vertex="1" parent="WIyWlLk6GJQsqaUBKTNV-1">
          <mxGeometry x="1160" y="560" width="120" height="40" as="geometry" />
        </mxCell>
        <mxCell id="V_W2RUlEHDYnHeLPTbX3-4" value="디테일 페이지&lt;div&gt;종료&lt;/div&gt;" style="strokeWidth=2;html=1;shape=mxgraph.flowchart.terminator;whiteSpace=wrap;" vertex="1" parent="WIyWlLk6GJQsqaUBKTNV-1">
          <mxGeometry x="960" y="640" width="120" height="40" as="geometry" />
        </mxCell>
        <mxCell id="V_W2RUlEHDYnHeLPTbX3-5" value="파라미터&lt;div&gt;획득&lt;/div&gt;" style="rhombus;whiteSpace=wrap;html=1;" vertex="1" parent="WIyWlLk6GJQsqaUBKTNV-1">
          <mxGeometry x="960" y="320" width="120" height="80" as="geometry" />
        </mxCell>
        <mxCell id="V_W2RUlEHDYnHeLPTbX3-10" value="게시글 정보&lt;div&gt;획득&lt;/div&gt;" style="rhombus;whiteSpace=wrap;html=1;" vertex="1" parent="WIyWlLk6GJQsqaUBKTNV-1">
          <mxGeometry x="960" y="440" width="120" height="80" as="geometry" />
        </mxCell>
        <mxCell id="V_W2RUlEHDYnHeLPTbX3-11" value="화면에 출력" style="shape=document;whiteSpace=wrap;html=1;boundedLbl=1;" vertex="1" parent="WIyWlLk6GJQsqaUBKTNV-1">
          <mxGeometry x="960" y="560" width="120" height="40" as="geometry" />
        </mxCell>
        <mxCell id="V_W2RUlEHDYnHeLPTbX3-14" value="" style="endArrow=classic;html=1;rounded=0;exitX=0.5;exitY=1;exitDx=0;exitDy=0;exitPerimeter=0;" edge="1" parent="WIyWlLk6GJQsqaUBKTNV-1" source="V_W2RUlEHDYnHeLPTbX3-0" target="V_W2RUlEHDYnHeLPTbX3-1">
          <mxGeometry width="50" height="50" relative="1" as="geometry">
            <mxPoint x="1050" y="190" as="sourcePoint" />
            <mxPoint x="1100" y="140" as="targetPoint" />
          </mxGeometry>
        </mxCell>
        <mxCell id="V_W2RUlEHDYnHeLPTbX3-15" value="" style="endArrow=classic;html=1;rounded=0;exitX=0.5;exitY=1;exitDx=0;exitDy=0;" edge="1" parent="WIyWlLk6GJQsqaUBKTNV-1" source="V_W2RUlEHDYnHeLPTbX3-1" target="V_W2RUlEHDYnHeLPTbX3-2">
          <mxGeometry width="50" height="50" relative="1" as="geometry">
            <mxPoint x="1050" y="470" as="sourcePoint" />
            <mxPoint x="1100" y="420" as="targetPoint" />
          </mxGeometry>
        </mxCell>
        <mxCell id="V_W2RUlEHDYnHeLPTbX3-16" value="" style="endArrow=classic;html=1;rounded=0;exitX=1;exitY=0.5;exitDx=0;exitDy=0;entryX=0.5;entryY=0;entryDx=0;entryDy=0;" edge="1" parent="WIyWlLk6GJQsqaUBKTNV-1" source="V_W2RUlEHDYnHeLPTbX3-2" target="V_W2RUlEHDYnHeLPTbX3-3">
          <mxGeometry relative="1" as="geometry">
            <mxPoint x="1020" y="450" as="sourcePoint" />
            <mxPoint x="1120" y="450" as="targetPoint" />
            <Array as="points">
              <mxPoint x="1220" y="240" />
            </Array>
          </mxGeometry>
        </mxCell>
        <mxCell id="V_W2RUlEHDYnHeLPTbX3-17" value="YES" style="edgeLabel;resizable=0;html=1;;align=center;verticalAlign=middle;" connectable="0" vertex="1" parent="V_W2RUlEHDYnHeLPTbX3-16">
          <mxGeometry relative="1" as="geometry">
            <mxPoint x="-80" y="-90" as="offset" />
          </mxGeometry>
        </mxCell>
        <mxCell id="V_W2RUlEHDYnHeLPTbX3-18" value="" style="endArrow=classic;html=1;rounded=0;exitX=0.5;exitY=1;exitDx=0;exitDy=0;entryX=0.5;entryY=0;entryDx=0;entryDy=0;" edge="1" parent="WIyWlLk6GJQsqaUBKTNV-1" source="V_W2RUlEHDYnHeLPTbX3-2" target="V_W2RUlEHDYnHeLPTbX3-5">
          <mxGeometry relative="1" as="geometry">
            <mxPoint x="1020" y="450" as="sourcePoint" />
            <mxPoint x="1120" y="450" as="targetPoint" />
          </mxGeometry>
        </mxCell>
        <mxCell id="V_W2RUlEHDYnHeLPTbX3-19" value="NO" style="edgeLabel;resizable=0;html=1;;align=center;verticalAlign=middle;" connectable="0" vertex="1" parent="V_W2RUlEHDYnHeLPTbX3-18">
          <mxGeometry relative="1" as="geometry" />
        </mxCell>
        <mxCell id="V_W2RUlEHDYnHeLPTbX3-20" value="" style="endArrow=classic;html=1;rounded=0;exitX=1;exitY=0.5;exitDx=0;exitDy=0;" edge="1" parent="WIyWlLk6GJQsqaUBKTNV-1" source="V_W2RUlEHDYnHeLPTbX3-5">
          <mxGeometry relative="1" as="geometry">
            <mxPoint x="900" y="440" as="sourcePoint" />
            <mxPoint x="1220" y="560" as="targetPoint" />
            <Array as="points">
              <mxPoint x="1220" y="360" />
            </Array>
          </mxGeometry>
        </mxCell>
        <mxCell id="V_W2RUlEHDYnHeLPTbX3-21" value="&lt;div&gt;NO&lt;/div&gt;" style="edgeLabel;resizable=0;html=1;;align=center;verticalAlign=middle;" connectable="0" vertex="1" parent="V_W2RUlEHDYnHeLPTbX3-20">
          <mxGeometry relative="1" as="geometry">
            <mxPoint x="-80" y="-30" as="offset" />
          </mxGeometry>
        </mxCell>
        <mxCell id="V_W2RUlEHDYnHeLPTbX3-22" value="" style="endArrow=classic;html=1;rounded=0;exitX=0.5;exitY=1;exitDx=0;exitDy=0;" edge="1" parent="WIyWlLk6GJQsqaUBKTNV-1" source="V_W2RUlEHDYnHeLPTbX3-5">
          <mxGeometry relative="1" as="geometry">
            <mxPoint x="900" y="540" as="sourcePoint" />
            <mxPoint x="1020" y="440" as="targetPoint" />
          </mxGeometry>
        </mxCell>
        <mxCell id="V_W2RUlEHDYnHeLPTbX3-23" value="YES" style="edgeLabel;resizable=0;html=1;;align=center;verticalAlign=middle;" connectable="0" vertex="1" parent="V_W2RUlEHDYnHeLPTbX3-22">
          <mxGeometry relative="1" as="geometry" />
        </mxCell>
        <mxCell id="V_W2RUlEHDYnHeLPTbX3-24" value="" style="endArrow=classic;html=1;rounded=0;exitX=1;exitY=0.5;exitDx=0;exitDy=0;" edge="1" parent="WIyWlLk6GJQsqaUBKTNV-1" source="V_W2RUlEHDYnHeLPTbX3-10">
          <mxGeometry relative="1" as="geometry">
            <mxPoint x="1090" y="370" as="sourcePoint" />
            <mxPoint x="1220" y="560" as="targetPoint" />
            <Array as="points">
              <mxPoint x="1220" y="480" />
            </Array>
          </mxGeometry>
        </mxCell>
        <mxCell id="V_W2RUlEHDYnHeLPTbX3-25" value="&lt;div&gt;NO&lt;/div&gt;" style="edgeLabel;resizable=0;html=1;;align=center;verticalAlign=middle;" connectable="0" vertex="1" parent="V_W2RUlEHDYnHeLPTbX3-24">
          <mxGeometry relative="1" as="geometry">
            <mxPoint x="-50" as="offset" />
          </mxGeometry>
        </mxCell>
        <mxCell id="V_W2RUlEHDYnHeLPTbX3-27" value="" style="endArrow=classic;html=1;rounded=0;exitX=0.5;exitY=1;exitDx=0;exitDy=0;entryX=0.5;entryY=0;entryDx=0;entryDy=0;" edge="1" parent="WIyWlLk6GJQsqaUBKTNV-1" source="V_W2RUlEHDYnHeLPTbX3-10" target="V_W2RUlEHDYnHeLPTbX3-11">
          <mxGeometry relative="1" as="geometry">
            <mxPoint x="1030" y="410" as="sourcePoint" />
            <mxPoint x="1030" y="450" as="targetPoint" />
          </mxGeometry>
        </mxCell>
        <mxCell id="V_W2RUlEHDYnHeLPTbX3-28" value="YES" style="edgeLabel;resizable=0;html=1;;align=center;verticalAlign=middle;" connectable="0" vertex="1" parent="V_W2RUlEHDYnHeLPTbX3-27">
          <mxGeometry relative="1" as="geometry" />
        </mxCell>
        <mxCell id="V_W2RUlEHDYnHeLPTbX3-29" value="" style="endArrow=classic;html=1;rounded=0;entryX=0.5;entryY=0;entryDx=0;entryDy=0;entryPerimeter=0;exitX=0.501;exitY=0.862;exitDx=0;exitDy=0;exitPerimeter=0;" edge="1" parent="WIyWlLk6GJQsqaUBKTNV-1" source="V_W2RUlEHDYnHeLPTbX3-11" target="V_W2RUlEHDYnHeLPTbX3-4">
          <mxGeometry relative="1" as="geometry">
            <mxPoint x="1020" y="600" as="sourcePoint" />
            <mxPoint x="1030" y="570" as="targetPoint" />
          </mxGeometry>
        </mxCell>
        <mxCell id="V_W2RUlEHDYnHeLPTbX3-33" value="" style="endArrow=classic;html=1;rounded=0;exitX=0.504;exitY=0.853;exitDx=0;exitDy=0;exitPerimeter=0;entryX=1;entryY=0.5;entryDx=0;entryDy=0;entryPerimeter=0;" edge="1" parent="WIyWlLk6GJQsqaUBKTNV-1" source="V_W2RUlEHDYnHeLPTbX3-3" target="V_W2RUlEHDYnHeLPTbX3-4">
          <mxGeometry width="50" height="50" relative="1" as="geometry">
            <mxPoint x="1100" y="580" as="sourcePoint" />
            <mxPoint x="1150" y="530" as="targetPoint" />
            <Array as="points">
              <mxPoint x="1220" y="660" />
            </Array>
          </mxGeometry>
        </mxCell>
        <mxCell id="V_W2RUlEHDYnHeLPTbX3-38" style="edgeStyle=orthogonalEdgeStyle;rounded=0;orthogonalLoop=1;jettySize=auto;html=1;entryX=0.5;entryY=0;entryDx=0;entryDy=0;" edge="1" parent="WIyWlLk6GJQsqaUBKTNV-1" source="V_W2RUlEHDYnHeLPTbX3-34" target="V_W2RUlEHDYnHeLPTbX3-35">
          <mxGeometry relative="1" as="geometry" />
        </mxCell>
        <mxCell id="V_W2RUlEHDYnHeLPTbX3-34" value="수정 버튼 클릭" style="strokeWidth=2;html=1;shape=mxgraph.flowchart.terminator;whiteSpace=wrap;" vertex="1" parent="WIyWlLk6GJQsqaUBKTNV-1">
          <mxGeometry x="1320" y="40" width="120" height="40" as="geometry" />
        </mxCell>
        <mxCell id="V_W2RUlEHDYnHeLPTbX3-35" value="수정 페이지로 이동" style="rounded=0;whiteSpace=wrap;html=1;" vertex="1" parent="WIyWlLk6GJQsqaUBKTNV-1">
          <mxGeometry x="1320" y="120" width="120" height="40" as="geometry" />
        </mxCell>
        <mxCell id="V_W2RUlEHDYnHeLPTbX3-36" value="처리 종료" style="strokeWidth=2;html=1;shape=mxgraph.flowchart.terminator;whiteSpace=wrap;" vertex="1" parent="WIyWlLk6GJQsqaUBKTNV-1">
          <mxGeometry x="1320" y="200" width="120" height="40" as="geometry" />
        </mxCell>
        <mxCell id="V_W2RUlEHDYnHeLPTbX3-39" style="edgeStyle=orthogonalEdgeStyle;rounded=0;orthogonalLoop=1;jettySize=auto;html=1;entryX=0.5;entryY=0;entryDx=0;entryDy=0;entryPerimeter=0;" edge="1" parent="WIyWlLk6GJQsqaUBKTNV-1" source="V_W2RUlEHDYnHeLPTbX3-35" target="V_W2RUlEHDYnHeLPTbX3-36">
          <mxGeometry relative="1" as="geometry" />
        </mxCell>
      </root>
    </mxGraphModel>
  </diagram>
</mxfile>
